<svg xmlns="http://www.w3.org/2000/svg"  viewBox="0 0 3333 3333" shape-rendering="geometricPrecision" text-rendering="geometricPrecision" image-rendering="optimizeQuality" fill-rule="evenodd" clip-rule="evenodd"><path d="M3021 0H313C141 0 0 141 0 312v2708c0 172 141 312 313 312h2708c172 0 313-141 313-312V312c0-172-141-312-313-312zM1284 1095c54 0 102 5 146 14s82 25 113 46 56 50 73 85 26 79 26 132c0 57-13 104-39 141-26 38-64 68-114 93 69 20 120 55 154 104 34 50 51 110 51 180 0 57-11 106-33 147-22 42-52 76-89 102s-80 46-128 58c-47 12-96 19-147 19H753V1094h529zm661 91h455v111h-455v-111zm101 836c34 33 82 49 144 49 45 0 84-11 116-34s52-47 60-72h197c-32 98-79 167-145 209-65 42-144 63-235 63-64 0-121-10-173-31s-95-49-131-87c-35-38-63-83-83-135-19-52-29-110-29-173 0-61 10-118 30-170 20-53 48-98 85-136s80-68 132-90c51-22 107-33 170-33 69 0 129 13 181 40 51 27 94 63 127 108s57 97 71 154c15 58 20 118 16 181h-587c0 64 21 125 55 157zm256-427c-26-29-72-45-126-45-36 0-65 6-89 18-23 12-42 27-57 45-14 18-24 37-30 57s-9 38-10 53h363c-5-57-25-99-52-129zm-1051-47c44 0 80-10 109-31 28-21 42-55 42-102 0-26-5-48-14-65-10-17-22-30-38-39-16-10-33-16-54-20-20-4-42-6-63-6h-231v262h250zm14 478c24 0 47-2 69-7s42-12 58-24c16-11 30-26 40-45s15-43 15-73c0-58-16-99-49-124-32-25-75-37-129-37h-268v309h264z"/></svg>